<mxfile host="app.diagrams.net" modified="2023-12-03T20:29:20.779Z" agent="Mozilla/5.0 (Windows NT 10.0; Win64; x64) AppleWebKit/537.36 (KHTML, like Gecko) Chrome/118.0.0.0 Safari/537.36 OPR/104.0.0.0 (Edition std-1)" etag="_i_OaV1YP5xv2miuNX0Q" version="22.1.5" type="google">
  <diagram id="C5RBs43oDa-KdzZeNtuy" name="Page-1">
    <mxGraphModel grid="0" page="1" gridSize="10" guides="1" tooltips="1" connect="1" arrows="1" fold="1" pageScale="1" pageWidth="827" pageHeight="1169" math="0" shadow="0">
      <root>
        <mxCell id="WIyWlLk6GJQsqaUBKTNV-0" />
        <mxCell id="WIyWlLk6GJQsqaUBKTNV-1" parent="WIyWlLk6GJQsqaUBKTNV-0" />
        <mxCell id="cub1wIvd2Pw499Pty5wT-8" style="edgeStyle=orthogonalEdgeStyle;rounded=0;orthogonalLoop=1;jettySize=auto;html=1;exitX=0.991;exitY=0.591;exitDx=0;exitDy=0;entryX=0;entryY=0.5;entryDx=0;entryDy=0;endArrow=none;endFill=0;exitPerimeter=0;" edge="1" parent="WIyWlLk6GJQsqaUBKTNV-1" source="cxu-YQPDRNUYHJWNVL6I-1" target="cxu-YQPDRNUYHJWNVL6I-3">
          <mxGeometry relative="1" as="geometry" />
        </mxCell>
        <mxCell id="cub1wIvd2Pw499Pty5wT-9" value="0...N" style="edgeLabel;html=1;align=center;verticalAlign=middle;resizable=0;points=[];" vertex="1" connectable="0" parent="cub1wIvd2Pw499Pty5wT-8">
          <mxGeometry x="0.8951" y="2" relative="1" as="geometry">
            <mxPoint x="-3" y="-14" as="offset" />
          </mxGeometry>
        </mxCell>
        <mxCell id="cub1wIvd2Pw499Pty5wT-10" value="1" style="edgeLabel;html=1;align=center;verticalAlign=middle;resizable=0;points=[];" vertex="1" connectable="0" parent="cub1wIvd2Pw499Pty5wT-8">
          <mxGeometry x="-0.8765" y="3" relative="1" as="geometry">
            <mxPoint x="-8" y="-13" as="offset" />
          </mxGeometry>
        </mxCell>
        <mxCell id="cub1wIvd2Pw499Pty5wT-11" value="pracuje" style="edgeLabel;html=1;align=center;verticalAlign=middle;resizable=0;points=[];" vertex="1" connectable="0" parent="cub1wIvd2Pw499Pty5wT-8">
          <mxGeometry x="-0.0617" y="2" relative="1" as="geometry">
            <mxPoint x="10" y="-12" as="offset" />
          </mxGeometry>
        </mxCell>
        <mxCell id="QdRcuFQwYabBnto83GH6-52" style="edgeStyle=orthogonalEdgeStyle;rounded=0;orthogonalLoop=1;jettySize=auto;html=1;exitX=0.5;exitY=1;exitDx=0;exitDy=0;entryX=0.5;entryY=0;entryDx=0;entryDy=0;endArrow=none;endFill=0;" edge="1" parent="WIyWlLk6GJQsqaUBKTNV-1" source="cxu-YQPDRNUYHJWNVL6I-1" target="cxu-YQPDRNUYHJWNVL6I-4">
          <mxGeometry relative="1" as="geometry" />
        </mxCell>
        <mxCell id="cub1wIvd2Pw499Pty5wT-12" value="1...N" style="edgeLabel;html=1;align=center;verticalAlign=middle;resizable=0;points=[];" vertex="1" connectable="0" parent="QdRcuFQwYabBnto83GH6-52">
          <mxGeometry x="-0.9518" y="1" relative="1" as="geometry">
            <mxPoint x="17" y="1" as="offset" />
          </mxGeometry>
        </mxCell>
        <mxCell id="cub1wIvd2Pw499Pty5wT-14" value="0...N" style="edgeLabel;html=1;align=center;verticalAlign=middle;resizable=0;points=[];" vertex="1" connectable="0" parent="QdRcuFQwYabBnto83GH6-52">
          <mxGeometry x="0.9312" relative="1" as="geometry">
            <mxPoint x="-22" y="3" as="offset" />
          </mxGeometry>
        </mxCell>
        <mxCell id="cub1wIvd2Pw499Pty5wT-15" value="zpracovává" style="edgeLabel;html=1;align=center;verticalAlign=middle;resizable=0;points=[];" vertex="1" connectable="0" parent="QdRcuFQwYabBnto83GH6-52">
          <mxGeometry x="0.0241" y="-4" relative="1" as="geometry">
            <mxPoint x="-18" y="11" as="offset" />
          </mxGeometry>
        </mxCell>
        <mxCell id="1KXaebooYbENbxrsDReB-2" style="edgeStyle=orthogonalEdgeStyle;rounded=0;orthogonalLoop=1;jettySize=auto;html=1;exitX=0.75;exitY=1;exitDx=0;exitDy=0;entryX=0.75;entryY=0;entryDx=0;entryDy=0;dashed=1;" edge="1" parent="WIyWlLk6GJQsqaUBKTNV-1" source="cxu-YQPDRNUYHJWNVL6I-1" target="cxu-YQPDRNUYHJWNVL6I-4">
          <mxGeometry relative="1" as="geometry">
            <Array as="points">
              <mxPoint x="245" y="489" />
              <mxPoint x="731" y="489" />
            </Array>
          </mxGeometry>
        </mxCell>
        <mxCell id="1KXaebooYbENbxrsDReB-3" value="&amp;lt;&amp;lt;used&amp;gt;&amp;gt;" style="edgeLabel;html=1;align=center;verticalAlign=middle;resizable=0;points=[];" connectable="0" vertex="1" parent="1KXaebooYbENbxrsDReB-2">
          <mxGeometry x="-0.1634" y="-4" relative="1" as="geometry">
            <mxPoint x="-1" y="-14" as="offset" />
          </mxGeometry>
        </mxCell>
        <mxCell id="cxu-YQPDRNUYHJWNVL6I-1" value="&lt;p style=&quot;margin:0px;margin-top:4px;text-align:center;&quot;&gt;&lt;b&gt;Oddělení&lt;/b&gt;&lt;/p&gt;&lt;hr size=&quot;1&quot;&gt;&lt;p style=&quot;margin:0px;margin-left:4px;&quot;&gt;+ Název&lt;/p&gt;&lt;p style=&quot;margin:0px;margin-left:4px;&quot;&gt;+ Stručný popis&lt;/p&gt;&lt;p style=&quot;margin:0px;margin-left:4px;&quot;&gt;+ Místnost&lt;/p&gt;&lt;p style=&quot;margin:0px;margin-left:4px;&quot;&gt;+ Vedoucí&lt;/p&gt;&lt;hr size=&quot;1&quot;&gt;&lt;p style=&quot;margin:0px;margin-left:4px;&quot;&gt;&lt;span style=&quot;background-color: initial;&quot;&gt;+ Zobrazit informace&lt;/span&gt;&lt;/p&gt;&lt;p style=&quot;margin:0px;margin-left:4px;&quot;&gt;&lt;span style=&quot;background-color: initial;&quot;&gt;+ Přidat zaměstnance&lt;/span&gt;&lt;/p&gt;&lt;p style=&quot;margin:0px;margin-left:4px;&quot;&gt;+ Odebrat zaměstnance&lt;/p&gt;" style="verticalAlign=top;align=left;overflow=fill;fontSize=12;fontFamily=Helvetica;html=1;whiteSpace=wrap;" vertex="1" parent="WIyWlLk6GJQsqaUBKTNV-1">
          <mxGeometry x="125" y="314" width="160" height="151" as="geometry" />
        </mxCell>
        <mxCell id="cxu-YQPDRNUYHJWNVL6I-2" value="&lt;p style=&quot;margin:0px;margin-top:4px;text-align:center;&quot;&gt;&lt;b&gt;Zakázka&lt;/b&gt;&lt;/p&gt;&lt;hr size=&quot;1&quot;&gt;&lt;p style=&quot;margin:0px;margin-left:4px;&quot;&gt;+ ID_Zakázka&lt;/p&gt;&lt;p style=&quot;margin:0px;margin-left:4px;&quot;&gt;+ Datum zadání&lt;/p&gt;&lt;p style=&quot;margin:0px;margin-left:4px;&quot;&gt;+ Celková cena&lt;/p&gt;&lt;p style=&quot;margin:0px;margin-left:4px;&quot;&gt;+ Termín dodání&lt;/p&gt;&lt;p style=&quot;margin:0px;margin-left:4px;&quot;&gt;+ Stav zakázky&lt;/p&gt;&lt;hr size=&quot;1&quot;&gt;&lt;p style=&quot;margin:0px;margin-left:4px;&quot;&gt;+ Zaplatit&lt;/p&gt;&lt;p style=&quot;margin:0px;margin-left:4px;&quot;&gt;+ Přidat požadavek&lt;/p&gt;&lt;p style=&quot;margin:0px;margin-left:4px;&quot;&gt;+ Odebrat požadavek&lt;/p&gt;&lt;p style=&quot;margin:0px;margin-left:4px;&quot;&gt;+ Zobrazit zakázku&lt;/p&gt;&lt;p style=&quot;margin:0px;margin-left:4px;&quot;&gt;+ Zobrazit fakturu&lt;/p&gt;&lt;p style=&quot;margin:0px;margin-left:4px;&quot;&gt;+ Zobrazit stav&lt;/p&gt;" style="verticalAlign=top;align=left;overflow=fill;fontSize=12;fontFamily=Helvetica;html=1;whiteSpace=wrap;" vertex="1" parent="WIyWlLk6GJQsqaUBKTNV-1">
          <mxGeometry x="125" y="560" width="160" height="205" as="geometry" />
        </mxCell>
        <mxCell id="RcRxKQ39y2u0NBrqE5bU-0" style="edgeStyle=orthogonalEdgeStyle;rounded=0;orthogonalLoop=1;jettySize=auto;html=1;exitX=1;exitY=0.75;exitDx=0;exitDy=0;entryX=1;entryY=0.25;entryDx=0;entryDy=0;dashed=1;" edge="1" parent="WIyWlLk6GJQsqaUBKTNV-1" source="cxu-YQPDRNUYHJWNVL6I-3" target="cxu-YQPDRNUYHJWNVL6I-6">
          <mxGeometry relative="1" as="geometry" />
        </mxCell>
        <mxCell id="RcRxKQ39y2u0NBrqE5bU-1" value="&amp;lt;&amp;lt;used&amp;gt;&amp;gt;" style="edgeLabel;html=1;align=center;verticalAlign=middle;resizable=0;points=[];" connectable="0" vertex="1" parent="RcRxKQ39y2u0NBrqE5bU-0">
          <mxGeometry x="0.5423" relative="1" as="geometry">
            <mxPoint x="1" y="-21" as="offset" />
          </mxGeometry>
        </mxCell>
        <mxCell id="1KXaebooYbENbxrsDReB-0" style="edgeStyle=orthogonalEdgeStyle;rounded=0;orthogonalLoop=1;jettySize=auto;html=1;exitX=0.75;exitY=0;exitDx=0;exitDy=0;entryX=0;entryY=0.75;entryDx=0;entryDy=0;dashed=1;" edge="1" parent="WIyWlLk6GJQsqaUBKTNV-1" source="cxu-YQPDRNUYHJWNVL6I-3" target="cxu-YQPDRNUYHJWNVL6I-2">
          <mxGeometry relative="1" as="geometry">
            <Array as="points">
              <mxPoint x="729" y="123" />
              <mxPoint x="27" y="123" />
              <mxPoint x="27" y="714" />
            </Array>
          </mxGeometry>
        </mxCell>
        <mxCell id="1KXaebooYbENbxrsDReB-1" value="&amp;lt;&amp;lt;used&amp;gt;&amp;gt;" style="edgeLabel;html=1;align=center;verticalAlign=middle;resizable=0;points=[];" connectable="0" vertex="1" parent="1KXaebooYbENbxrsDReB-0">
          <mxGeometry x="0.6953" y="2" relative="1" as="geometry">
            <mxPoint y="6" as="offset" />
          </mxGeometry>
        </mxCell>
        <mxCell id="cxu-YQPDRNUYHJWNVL6I-3" value="&lt;p style=&quot;margin:0px;margin-top:4px;text-align:center;&quot;&gt;&lt;b&gt;Zaměstnanec&lt;/b&gt;&lt;/p&gt;&lt;hr size=&quot;1&quot;&gt;&lt;p style=&quot;margin:0px;margin-left:4px;&quot;&gt;+ ID_Zaměstnanec&lt;/p&gt;&lt;p style=&quot;margin:0px;margin-left:4px;&quot;&gt;+ Mzda&lt;/p&gt;&lt;p style=&quot;margin:0px;margin-left:4px;&quot;&gt;+ Titul&lt;/p&gt;&lt;p style=&quot;margin:0px;margin-left:4px;&quot;&gt;+ Specializace&lt;/p&gt;&lt;hr size=&quot;1&quot;&gt;&lt;p style=&quot;margin:0px;margin-left:4px;&quot;&gt;&lt;span style=&quot;background-color: initial;&quot;&gt;+ Zobrazit informace&lt;/span&gt;&lt;br&gt;&lt;/p&gt;&lt;p style=&quot;margin:0px;margin-left:4px;&quot;&gt;&lt;span style=&quot;background-color: initial;&quot;&gt;+ Vytvořit zakázku&lt;/span&gt;&lt;/p&gt;&lt;p style=&quot;margin:0px;margin-left:4px;&quot;&gt;&lt;span style=&quot;background-color: initial;&quot;&gt;+ Stornovat zakázku&lt;/span&gt;&lt;/p&gt;" style="verticalAlign=top;align=left;overflow=fill;fontSize=12;fontFamily=Helvetica;html=1;whiteSpace=wrap;" vertex="1" parent="WIyWlLk6GJQsqaUBKTNV-1">
          <mxGeometry x="609" y="327.5" width="160" height="149.5" as="geometry" />
        </mxCell>
        <mxCell id="cub1wIvd2Pw499Pty5wT-28" style="edgeStyle=orthogonalEdgeStyle;rounded=0;orthogonalLoop=1;jettySize=auto;html=1;exitX=0.75;exitY=0;exitDx=0;exitDy=0;entryX=0.75;entryY=1;entryDx=0;entryDy=0;dashed=1;" edge="1" parent="WIyWlLk6GJQsqaUBKTNV-1" source="cxu-YQPDRNUYHJWNVL6I-5" target="cxu-YQPDRNUYHJWNVL6I-2">
          <mxGeometry relative="1" as="geometry" />
        </mxCell>
        <mxCell id="cub1wIvd2Pw499Pty5wT-29" value="&amp;lt;&amp;lt;used&amp;gt;&amp;gt;" style="edgeLabel;html=1;align=center;verticalAlign=middle;resizable=0;points=[];" vertex="1" connectable="0" parent="cub1wIvd2Pw499Pty5wT-28">
          <mxGeometry x="-0.1081" y="4" relative="1" as="geometry">
            <mxPoint x="38" y="-8" as="offset" />
          </mxGeometry>
        </mxCell>
        <mxCell id="cxu-YQPDRNUYHJWNVL6I-5" value="&lt;p style=&quot;margin:0px;margin-top:4px;text-align:center;&quot;&gt;&lt;b&gt;Zadavatel&lt;/b&gt;&lt;/p&gt;&lt;hr size=&quot;1&quot;&gt;&lt;p style=&quot;margin:0px;margin-left:4px;&quot;&gt;+ ID_Zadavatel&lt;/p&gt;&lt;p style=&quot;margin:0px;margin-left:4px;&quot;&gt;+ Jméno&lt;/p&gt;&lt;p style=&quot;margin:0px;margin-left:4px;&quot;&gt;+ Přijmení&lt;/p&gt;&lt;hr size=&quot;1&quot;&gt;&lt;p style=&quot;margin:0px;margin-left:4px;&quot;&gt;+ Zobrazit informace&lt;/p&gt;" style="verticalAlign=top;align=left;overflow=fill;fontSize=12;fontFamily=Helvetica;html=1;whiteSpace=wrap;" vertex="1" parent="WIyWlLk6GJQsqaUBKTNV-1">
          <mxGeometry x="125" y="903" width="160" height="106" as="geometry" />
        </mxCell>
        <mxCell id="cxu-YQPDRNUYHJWNVL6I-6" value="&lt;p style=&quot;margin:0px;margin-top:4px;text-align:center;&quot;&gt;&lt;b&gt;Faktura&lt;/b&gt;&lt;/p&gt;&lt;hr size=&quot;1&quot;&gt;&lt;p style=&quot;margin:0px;margin-left:4px;&quot;&gt;+ ID_Faktura&lt;/p&gt;&lt;p style=&quot;margin:0px;margin-left:4px;&quot;&gt;+ Datum vystavení&lt;/p&gt;&lt;hr size=&quot;1&quot;&gt;&lt;p style=&quot;border-color: var(--border-color); margin: 0px 0px 0px 4px;&quot;&gt;+ Vystavit fakturu&lt;/p&gt;&lt;p style=&quot;border-color: var(--border-color); margin: 0px 0px 0px 4px;&quot;&gt;+ Smazat fakturu&lt;/p&gt;&lt;p style=&quot;border-color: var(--border-color); margin: 0px 0px 0px 4px;&quot;&gt;+ Zobrazit fakturu&lt;/p&gt;" style="verticalAlign=top;align=left;overflow=fill;fontSize=12;fontFamily=Helvetica;html=1;whiteSpace=wrap;" vertex="1" parent="WIyWlLk6GJQsqaUBKTNV-1">
          <mxGeometry x="609" y="903" width="160" height="121" as="geometry" />
        </mxCell>
        <mxCell id="cxu-YQPDRNUYHJWNVL6I-4" value="&lt;p style=&quot;margin:0px;margin-top:4px;text-align:center;&quot;&gt;&lt;b&gt;Požadavek&lt;/b&gt;&lt;/p&gt;&lt;hr size=&quot;1&quot;&gt;&lt;p style=&quot;margin:0px;margin-left:4px;&quot;&gt;+ ID_Požadavek&lt;/p&gt;&lt;p style=&quot;margin:0px;margin-left:4px;&quot;&gt;+ Typ&lt;/p&gt;&lt;p style=&quot;margin:0px;margin-left:4px;&quot;&gt;+ Cena&lt;/p&gt;&lt;p style=&quot;margin:0px;margin-left:4px;&quot;&gt;+ Doba platnosti&lt;/p&gt;&lt;p style=&quot;margin:0px;margin-left:4px;&quot;&gt;+ Počet brigádníků&lt;/p&gt;&lt;p style=&quot;margin:0px;margin-left:4px;&quot;&gt;+ Stav požadavku&lt;/p&gt;&lt;hr size=&quot;1&quot;&gt;&lt;p style=&quot;margin:0px;margin-left:4px;&quot;&gt;+ Zobrazit požadavek&lt;/p&gt;&lt;p style=&quot;margin:0px;margin-left:4px;&quot;&gt;+ Zobrazit stav&lt;/p&gt;&lt;p style=&quot;margin:0px;margin-left:4px;&quot;&gt;+ Zpracovat požadavek&lt;/p&gt;" style="verticalAlign=top;align=left;overflow=fill;fontSize=12;fontFamily=Helvetica;html=1;whiteSpace=wrap;" vertex="1" parent="WIyWlLk6GJQsqaUBKTNV-1">
          <mxGeometry x="611" y="566" width="160" height="180" as="geometry" />
        </mxCell>
        <mxCell id="cub1wIvd2Pw499Pty5wT-1" value="" style="endArrow=diamondThin;endFill=0;endSize=24;html=1;rounded=0;exitX=0.5;exitY=1;exitDx=0;exitDy=0;entryX=0.5;entryY=0;entryDx=0;entryDy=0;" edge="1" parent="WIyWlLk6GJQsqaUBKTNV-1" source="cxu-YQPDRNUYHJWNVL6I-2" target="cxu-YQPDRNUYHJWNVL6I-5">
          <mxGeometry width="160" relative="1" as="geometry">
            <mxPoint x="387" y="645" as="sourcePoint" />
            <mxPoint x="547" y="645" as="targetPoint" />
          </mxGeometry>
        </mxCell>
        <mxCell id="cub1wIvd2Pw499Pty5wT-2" value="1" style="edgeLabel;html=1;align=center;verticalAlign=middle;resizable=0;points=[];" vertex="1" connectable="0" parent="cub1wIvd2Pw499Pty5wT-1">
          <mxGeometry x="0.4444" y="1" relative="1" as="geometry">
            <mxPoint x="-23" y="17" as="offset" />
          </mxGeometry>
        </mxCell>
        <mxCell id="cub1wIvd2Pw499Pty5wT-3" value="0...N" style="edgeLabel;html=1;align=center;verticalAlign=middle;resizable=0;points=[];" vertex="1" connectable="0" parent="cub1wIvd2Pw499Pty5wT-1">
          <mxGeometry x="-0.6508" relative="1" as="geometry">
            <mxPoint x="-22" y="-8" as="offset" />
          </mxGeometry>
        </mxCell>
        <mxCell id="cub1wIvd2Pw499Pty5wT-4" value="má" style="edgeLabel;html=1;align=center;verticalAlign=middle;resizable=0;points=[];" vertex="1" connectable="0" parent="cub1wIvd2Pw499Pty5wT-1">
          <mxGeometry x="-0.2222" y="2" relative="1" as="geometry">
            <mxPoint x="-26" y="14" as="offset" />
          </mxGeometry>
        </mxCell>
        <mxCell id="QdRcuFQwYabBnto83GH6-34" value="" style="ellipse;whiteSpace=wrap;html=1;align=center;aspect=fixed;fillColor=none;strokeColor=none;resizable=0;perimeter=centerPerimeter;rotatable=0;allowArrows=0;points=[];outlineConnect=1;" vertex="1" parent="WIyWlLk6GJQsqaUBKTNV-1">
          <mxGeometry x="414" y="703" width="10" height="10" as="geometry" />
        </mxCell>
        <mxCell id="QdRcuFQwYabBnto83GH6-39" value="" style="endArrow=diamondThin;endFill=0;endSize=24;html=1;rounded=0;entryX=0.5;entryY=0;entryDx=0;entryDy=0;exitX=0.5;exitY=1;exitDx=0;exitDy=0;" edge="1" parent="WIyWlLk6GJQsqaUBKTNV-1" source="cxu-YQPDRNUYHJWNVL6I-4" target="cxu-YQPDRNUYHJWNVL6I-6">
          <mxGeometry width="160" relative="1" as="geometry">
            <mxPoint x="688" y="743" as="sourcePoint" />
            <mxPoint x="679" y="859" as="targetPoint" />
          </mxGeometry>
        </mxCell>
        <mxCell id="QdRcuFQwYabBnto83GH6-41" value="1...N" style="edgeLabel;html=1;align=center;verticalAlign=middle;resizable=0;points=[];" connectable="0" vertex="1" parent="QdRcuFQwYabBnto83GH6-39">
          <mxGeometry x="-0.6508" relative="1" as="geometry">
            <mxPoint x="-22" y="-8" as="offset" />
          </mxGeometry>
        </mxCell>
        <mxCell id="QdRcuFQwYabBnto83GH6-42" value="má" style="edgeLabel;html=1;align=center;verticalAlign=middle;resizable=0;points=[];" connectable="0" vertex="1" parent="QdRcuFQwYabBnto83GH6-39">
          <mxGeometry x="-0.2222" y="2" relative="1" as="geometry">
            <mxPoint x="-26" y="18" as="offset" />
          </mxGeometry>
        </mxCell>
        <mxCell id="TEdcehorjSn4rWIHq1JS-0" value="0...1" style="edgeLabel;html=1;align=center;verticalAlign=middle;resizable=0;points=[];" connectable="0" vertex="1" parent="QdRcuFQwYabBnto83GH6-39">
          <mxGeometry x="0.643" y="2" relative="1" as="geometry">
            <mxPoint x="-28" y="7" as="offset" />
          </mxGeometry>
        </mxCell>
        <mxCell id="QdRcuFQwYabBnto83GH6-54" value="" style="endArrow=diamondThin;endFill=0;endSize=24;html=1;rounded=0;entryX=1.013;entryY=0.461;entryDx=0;entryDy=0;exitX=0;exitY=0.5;exitDx=0;exitDy=0;entryPerimeter=0;" edge="1" parent="WIyWlLk6GJQsqaUBKTNV-1" source="cxu-YQPDRNUYHJWNVL6I-4" target="cxu-YQPDRNUYHJWNVL6I-2">
          <mxGeometry width="160" relative="1" as="geometry">
            <mxPoint x="386" y="677" as="sourcePoint" />
            <mxPoint x="546" y="677" as="targetPoint" />
          </mxGeometry>
        </mxCell>
        <mxCell id="cub1wIvd2Pw499Pty5wT-16" value="1...N" style="edgeLabel;html=1;align=center;verticalAlign=middle;resizable=0;points=[];" vertex="1" connectable="0" parent="QdRcuFQwYabBnto83GH6-54">
          <mxGeometry x="-0.8716" relative="1" as="geometry">
            <mxPoint x="-4" y="-16" as="offset" />
          </mxGeometry>
        </mxCell>
        <mxCell id="cub1wIvd2Pw499Pty5wT-17" value="1" style="edgeLabel;html=1;align=center;verticalAlign=middle;resizable=0;points=[];" vertex="1" connectable="0" parent="QdRcuFQwYabBnto83GH6-54">
          <mxGeometry x="0.8029" relative="1" as="geometry">
            <mxPoint x="5" y="-14" as="offset" />
          </mxGeometry>
        </mxCell>
        <mxCell id="QdRcuFQwYabBnto83GH6-63" value="obsahuje" style="edgeLabel;html=1;align=center;verticalAlign=middle;resizable=0;points=[];" connectable="0" vertex="1" parent="QdRcuFQwYabBnto83GH6-54">
          <mxGeometry x="-0.0924" y="-2" relative="1" as="geometry">
            <mxPoint x="-4" y="-14" as="offset" />
          </mxGeometry>
        </mxCell>
        <mxCell id="cub1wIvd2Pw499Pty5wT-21" value="" style="endArrow=none;html=1;rounded=0;exitX=0.5;exitY=0;exitDx=0;exitDy=0;" edge="1" parent="WIyWlLk6GJQsqaUBKTNV-1" source="cxu-YQPDRNUYHJWNVL6I-3">
          <mxGeometry width="50" height="50" relative="1" as="geometry">
            <mxPoint x="442" y="591" as="sourcePoint" />
            <mxPoint x="689" y="155" as="targetPoint" />
          </mxGeometry>
        </mxCell>
        <mxCell id="cub1wIvd2Pw499Pty5wT-25" value="1" style="edgeLabel;html=1;align=center;verticalAlign=middle;resizable=0;points=[];" vertex="1" connectable="0" parent="cub1wIvd2Pw499Pty5wT-21">
          <mxGeometry x="-0.3465" y="1" relative="1" as="geometry">
            <mxPoint x="15" y="41" as="offset" />
          </mxGeometry>
        </mxCell>
        <mxCell id="cub1wIvd2Pw499Pty5wT-22" value="" style="endArrow=none;html=1;rounded=0;" edge="1" parent="WIyWlLk6GJQsqaUBKTNV-1">
          <mxGeometry width="50" height="50" relative="1" as="geometry">
            <mxPoint x="691" y="153" as="sourcePoint" />
            <mxPoint x="72" y="155" as="targetPoint" />
          </mxGeometry>
        </mxCell>
        <mxCell id="cub1wIvd2Pw499Pty5wT-23" value="" style="endArrow=none;html=1;rounded=0;exitX=0;exitY=0.5;exitDx=0;exitDy=0;" edge="1" parent="WIyWlLk6GJQsqaUBKTNV-1" source="cxu-YQPDRNUYHJWNVL6I-2">
          <mxGeometry width="50" height="50" relative="1" as="geometry">
            <mxPoint x="442" y="591" as="sourcePoint" />
            <mxPoint x="71" y="663" as="targetPoint" />
          </mxGeometry>
        </mxCell>
        <mxCell id="cub1wIvd2Pw499Pty5wT-26" value="0...N" style="edgeLabel;html=1;align=center;verticalAlign=middle;resizable=0;points=[];" vertex="1" connectable="0" parent="cub1wIvd2Pw499Pty5wT-23">
          <mxGeometry x="0.0752" y="3" relative="1" as="geometry">
            <mxPoint x="4" y="-16" as="offset" />
          </mxGeometry>
        </mxCell>
        <mxCell id="cub1wIvd2Pw499Pty5wT-24" value="" style="endArrow=none;html=1;rounded=0;" edge="1" parent="WIyWlLk6GJQsqaUBKTNV-1">
          <mxGeometry width="50" height="50" relative="1" as="geometry">
            <mxPoint x="70" y="663" as="sourcePoint" />
            <mxPoint x="70" y="156" as="targetPoint" />
          </mxGeometry>
        </mxCell>
        <mxCell id="cub1wIvd2Pw499Pty5wT-27" value="zodpovídá" style="edgeLabel;html=1;align=center;verticalAlign=middle;resizable=0;points=[];" vertex="1" connectable="0" parent="cub1wIvd2Pw499Pty5wT-24">
          <mxGeometry x="0.0079" y="-3" relative="1" as="geometry">
            <mxPoint x="14" y="86" as="offset" />
          </mxGeometry>
        </mxCell>
        <mxCell id="arwVKEVdFR8puvku4CYD-6" style="edgeStyle=orthogonalEdgeStyle;rounded=0;orthogonalLoop=1;jettySize=auto;html=1;exitX=0;exitY=0.5;exitDx=0;exitDy=0;entryX=0.75;entryY=0;entryDx=0;entryDy=0;endArrow=classic;endFill=1;dashed=1;" edge="1" parent="WIyWlLk6GJQsqaUBKTNV-1" source="arwVKEVdFR8puvku4CYD-5" target="cxu-YQPDRNUYHJWNVL6I-1">
          <mxGeometry relative="1" as="geometry" />
        </mxCell>
        <mxCell id="arwVKEVdFR8puvku4CYD-7" value="&amp;lt;&amp;lt;instantiate&amp;gt;&amp;gt;" style="edgeLabel;html=1;align=center;verticalAlign=middle;resizable=0;points=[];" connectable="0" vertex="1" parent="arwVKEVdFR8puvku4CYD-6">
          <mxGeometry x="-0.1518" relative="1" as="geometry">
            <mxPoint y="-13" as="offset" />
          </mxGeometry>
        </mxCell>
        <mxCell id="arwVKEVdFR8puvku4CYD-8" style="edgeStyle=orthogonalEdgeStyle;rounded=0;orthogonalLoop=1;jettySize=auto;html=1;exitX=1;exitY=0.5;exitDx=0;exitDy=0;entryX=0.25;entryY=0;entryDx=0;entryDy=0;dashed=1;" edge="1" parent="WIyWlLk6GJQsqaUBKTNV-1" source="arwVKEVdFR8puvku4CYD-5" target="cxu-YQPDRNUYHJWNVL6I-3">
          <mxGeometry relative="1" as="geometry" />
        </mxCell>
        <mxCell id="arwVKEVdFR8puvku4CYD-9" value="&amp;lt;&amp;lt;instantiate&amp;gt;&amp;gt;" style="edgeLabel;html=1;align=center;verticalAlign=middle;resizable=0;points=[];" connectable="0" vertex="1" parent="arwVKEVdFR8puvku4CYD-8">
          <mxGeometry x="-0.2489" y="4" relative="1" as="geometry">
            <mxPoint y="-9" as="offset" />
          </mxGeometry>
        </mxCell>
        <mxCell id="arwVKEVdFR8puvku4CYD-5" value="&lt;p style=&quot;margin:0px;margin-top:4px;text-align:center;&quot;&gt;&lt;b&gt;Správce&lt;/b&gt;&lt;/p&gt;&lt;hr size=&quot;1&quot;&gt;&lt;p style=&quot;margin:0px;margin-left:4px;&quot;&gt;+ ID_Správce&lt;/p&gt;&lt;hr size=&quot;1&quot;&gt;&lt;p style=&quot;margin:0px;margin-left:4px;&quot;&gt;&lt;span style=&quot;background-color: initial;&quot;&gt;+ Vytvořit oddělení&lt;/span&gt;&lt;br&gt;&lt;/p&gt;&lt;p style=&quot;margin:0px;margin-left:4px;&quot;&gt;&lt;span style=&quot;background-color: initial;&quot;&gt;+ Zrušit oddělení&lt;/span&gt;&lt;/p&gt;&lt;p style=&quot;margin:0px;margin-left:4px;&quot;&gt;&lt;span style=&quot;background-color: initial;&quot;&gt;+ Vytvořit zaměstnance&lt;/span&gt;&lt;/p&gt;&lt;p style=&quot;margin:0px;margin-left:4px;&quot;&gt;&lt;span style=&quot;background-color: initial;&quot;&gt;+ Odstranit zaměstnance&lt;/span&gt;&lt;/p&gt;&lt;p style=&quot;margin:0px;margin-left:4px;&quot;&gt;&lt;span style=&quot;background-color: initial;&quot;&gt;+ Upravit zaměstnance&lt;/span&gt;&lt;/p&gt;&lt;p style=&quot;margin:0px;margin-left:4px;&quot;&gt;&lt;span style=&quot;background-color: initial;&quot;&gt;+ Upravit oddělení&lt;/span&gt;&lt;/p&gt;" style="verticalAlign=top;align=left;overflow=fill;fontSize=12;fontFamily=Helvetica;html=1;whiteSpace=wrap;" vertex="1" parent="WIyWlLk6GJQsqaUBKTNV-1">
          <mxGeometry x="367" y="177" width="160" height="150.5" as="geometry" />
        </mxCell>
      </root>
    </mxGraphModel>
  </diagram>
</mxfile>
